/* XPM */
static char *result[] = {
/* columns rows colors chars-per-pixel */
"16 28 6 1 ",
"  c black",
". c #3A0911",
"X c #811426",
"o c #A11B31",
"O c white",
"+ c None",
/* pixels */
"++++.......+++++",
"+++.ooooooX.++++",
"++.o....oooX.+++",
"+.o.    .oooX.++",
".o.      .ooX.++",
".o.      .ooXX.+",
".o.O   O .oXXX.+",
".o.O   O .oX.X.+",
".X.      .oX.X.+",
".X.     .oXX..++",
"+.X.   .XXX.++++",
"++.X...XX...++++",
"+.XooooooooX.+++",
"+.XoooooooooX.++",
"+.XoooooooooX.++",
"+.ooooooooooo.++",
"+.oooooooooooX.+",
".XooooXooooooX.+",
".XXooX.XoooooX.+",
".XXoXX.XXoXoXXX.",
".XXXX. .XXoXXXX.",
".X.XX.  .XXXX.X.",
"+.XX.   .XX.X..+",
"++... ++...+..++",
"++++  +++  +++++",
"++++ ++++++  +++",
"++++ +++++++++++",
"++++ +++++++++++"
};
