/* XPM */
static char *result[] = {
/* columns rows colors chars-per-pixel */
"16 27 6 1 ",
"  c black",
". c #3A0911",
"X c #811426",
"o c #A11B31",
"O c white",
"+ c None",
/* pixels */
"++++.......+++++",
"+++.ooooooX.++++",
"++.o....oooX.+++",
"+.o.    .oooX.++",
".o.      .ooX.++",
".o.      .ooXX.+",
".o.O   O .oXXX.+",
".o.O   O .oX.X.+",
".X.      .oX..++",
".X.     .oXX.+++",
"+.X.   .XXX.++++",
"++.X...XX..X.+++",
"+.XoooooooooX.++",
"+.XoooooooooX.++",
"+.oooooooooooX.+",
"+.oooooooooooX.+",
".XooooXooooooX.+",
".XXooX.XoooooXX.",
".XXoXX.XXoXoXXX.",
"+.XXX. .XXoXXXX.",
"+..XX.  .XXXX.X.",
"+.XX.   .XX....+",
"++...   ...+++++",
"+++++    +++++++",
"++++++  ++++++++",
"++++++ + +++++++",
"++++++ +++++++++"
};
