/* XPM */
static char *result[] = {
/* columns rows colors chars-per-pixel */
"26 28 10 1 ",
"  c black",
". c #612B00",
"X c #124C00",
"o c #367C23",
"O c #923C01",
"+ c #D64902",
"@ c #FF6C00",
"# c #FFD403",
"$ c #F8F644",
"% c None",
/* pixels */
"%%%%%%%%%%    %%%%%%%%%%%%",
"%%%%%%%%%%    %%%%%%%%%%%%",
"%%%%%%%%% XXoo  %%%%%%%%%%",
"%%%%%%%%% XXoo  %%%%%%%%%%",
"%%%%%    %  XXoo %%  %%%%%",
"%%%  ++++ XXXXoo   @@  %%%",
"%%%  ++++ XXXXoo   @@  %%%",
"%% ++++..@++++..@++..@@ %%",
"%% ++++..@++++..@++..@@ %%",
"%% ++..@@+$$++..@++$$.. %%",
"  +..@@++###$$..@$$$$$$@  ",
"  +..@@++###$$..@$$$$$$@  ",
"  +..@@+++####..@##$$..@  ",
"  +..@@+++####..@##$$..@  ",
"  +..@@+++++++..@++++..@  ",
"  +..@@+++++++..@++++..@  ",
"  +..@@+++++++$$$++++..@  ",
"  O..####+++++..@++++$$$  ",
"  O..####+++++..@++++$$$  ",
"%% OO..##+$$++$$@$$++$$ %%",
"%% OO..##+$$++$$@$$++$$ %%",
"%% OO..@@$##$$##$##$$.. %%",
"%% OO..@@$##$$##$##$$.. %%",
"%%%  OO..@##++##@$$++  %%%",
"%%%%%    .@@++..@    %%%%%",
"%%%%%    .@@++..@    %%%%%",
"%%%%%%%%%        %%%%%%%%%",
"%%%%%%%%%        %%%%%%%%%"
};
