/* XPM */
static char *result[] = {
/* columns rows colors chars-per-pixel */
"48 48 3 1 ",
"  c gray5",
". c #201429",
"X c #292945",
/* pixels */
" ...........  .. ...........  .. ...........  ..",
"                                                ",
" .XXXX.  .XXXX.  .XXXX.  .XXXX.  .XXXX.  .XXXX. ",
" ......  ......  ......  ......  ......  ...... ",
"                                                ",
" X.  .XXXX.  .XX X.  .XXXX.  .XX X.  .XXXX.  .XX",
" ..  ......  ... ..  ......  ... ..  ......  ...",
"                                                ",
" .XXXX.  .XXXX.  .XXXX.  .XXXX.  .XXXX.  .XXXX. ",
" ......  ......  ......  ......  ......  ...... ",
"                                                ",
" X.  .XXXX.  .XX X.  .XXXX.  .XX X.  .XXXX.  .XX",
" ..  ......  ... ..  ......  ... ..  ......  ...",
"                                                ",
" ......  ....... ......  ....... ......  .......",
" ...........  .. ...........  .. ...........  ..",
"                                                ",
" .XXXX.  .XXXX.  .XXXX.  .XXXX.  .XXXX.  .XXXX. ",
" ......  ......  ......  ......  ......  ...... ",
"                                                ",
" X.  .XXXX.  .XX X.  .XXXX.  .XX X.  .XXXX.  .XX",
" ..  ......  ... ..  ......  ... ..  ......  ...",
"                                                ",
" .XXXX.  .XXXX.  .XXXX.  .XXXX.  .XXXX.  .XXXX. ",
" ......  ......  ......  ......  ......  ...... ",
"                                                ",
" X.  .XXXX.  .XX X.  .XXXX.  .XX X.  .XXXX.  .XX",
" ..  ......  ... ..  ......  ... ..  ......  ...",
"                                                ",
" ......  ....... ......  ....... ......  .......",
" ...........  .. ...........  .. ...........  ..",
"                                                ",
" .XXXX.  .XXXX.  .XXXX.  .XXXX.  .XXXX.  .XXXX. ",
" ......  ......  ......  ......  ......  ...... ",
"                                                ",
" X.  .XXXX.  .XX X.  .XXXX.  .XX X.  .XXXX.  .XX",
" ..  ......  ... ..  ......  ... ..  ......  ...",
"                                                ",
" .XXXX.  .XXXX.  .XXXX.  .XXXX.  .XXXX.  .XXXX. ",
" ......  ......  ......  ......  ......  ...... ",
"                                                ",
" X.  .XXXX.  .XX X.  .XXXX.  .XX X.  .XXXX.  .XX",
" ..  ......  ... ..  ......  ... ..  ......  ...",
"                                                ",
" ......  ....... ......  ....... ......  .......",
" ...........  .. ...........  .. ...........  ..",
"                                                ",
" .XXXX.  .XXXX.  .XXXX.  .XXXX.  .XXXX.  .XXXX. "
};
