/* XPM */
static char *result[] = {
/* columns rows colors chars-per-pixel */
"48 48 5 1 ",
"  c #8D9BB8",
". c #384565",
"X c #596686",
"o c #262C46",
"O c #181425",
/* pixels */
"        ..              ..            ..        ",
"    XX  ..     X    XX  ..     XX     ..  XX    ",
" .XXXXXXo.X.XXXXX.XXXXXXO.X.XXXXXXXX.X.oXXXXXX. ",
" .......o...............O..............o....... ",
"OOOOOOOOOOOOOOOOOOOOOOOOOOOOOOOOOOOOOOOOOOOOOOOO",
" XXXXXXXOOXXXXXXXXXXXXXXXXXOOXXXXXXXXXOOXXXXXXX ",
" XX..XX.OO...........XX....OO.........OO.XX..XX ",
" X......OO.................OO.........OO......X ",
" oo....oOO.ooooo..o....oo..OO...ooooo.OOo....oo ",
"OOOOOOOOOOOOOOOOOOOOOOOOOOOOOOOOOOOOOOOOOOOOOOOO",
" XXXXX...ooOOooooo.ooOOo.oo..ooooooOOoo...XXXXX ",
" X..oo.ooooOOooooooooOOooooooooooooOOoooo.oo..X ",
" XoooooooooOOooooooooOOooooooooooooOOoooooooooX ",
" XOooooooooOOoooooOooOOoooooOOoooooOOooooooooOX ",
"OOOOOOOOOOOOOOOOOOOOOOOOOOOOOOOOOOOOOOOOOOOOOOOO",
"OOOOOOOOOOOOOOOOOOOOOOOOOOOOOOOOOOOOOOOOOOOOOOOO",
"oooooooOOooOOoOOOOOOOOOOOOOOOOOOOOoOOooOOooooooo",
" X.X...oOX...oOOOOOOOOOOOOOOOOOOOOo...XOo...X.X ",
" .X....oOXo...OOOOOOOOOOOOOOOOOOOO...oXOo....X. ",
" X.X...ooX..oooOOOOOOOOOOOOOOOOOOooo..Xoo...X.X ",
"ooooooooOooooOOOOOOOOOOOOOOOOOOOOOOooooOoooooooo",
"OOOOOOOOOOOOOOOOOOOOOOOOOOOOOOOOOOOOOOOOOOOOOOOO",
" X.X.....oOOX..OOOOOOOOOOOOOOOOOO..XOOo.....X.X ",
"  X..X.oooOO..OOOOOOOOOOOOOOOOOOOO..OOooo.X..X  ",
" X.X.....oOO...OOOOOOOOOOOOOOOOOO...OOo.....X.X ",
"ooooooooooOOoooOOOOOOOOOOOOOOOOOOoooOOoooooooooo",
"OOOOOOOOOOOOOOOOOOOOOOOOOOOOOOOOOOOOOOOOOOOOOOOO",
" X..OOXX...o.oOOOOOOOOOOOOOOOOOOOOo.o...XXOO..X ",
" .X.OOX.....oooOOOOOOOOOOOOOOOOOOooo.....XOO.X. ",
" X..OOXX...o.oOOOOOOOOOOOOOOOOOOOOo.o...XXOO..X ",
"ooooOOooooooooOOOOOOOOOOOOOOOOOOOOooooooooOOoooo",
"OOOOOOOOOOOOOOOOOOOOOOOOOOOOOOOOOOOOOOOOOOOOOOOO",
"OOOOOOOOOOOOOOOOOOOOOOOOOOOOOOOOOOOOOOOOOOOOOOOO",
"OOOOOOOOOOOOOOOOOOOOOOOOOOOOOOOOOOOOOOOOOOOOOOOO",
" XOooooooooOOoooooOooOOoooooOOoooooOOooooooooOX ",
" XoooooooooOOooooooooOOooooooooooooOOoooooooooX ",
" X..oo.ooooOOooooooooOOooooooooooooOOoooo.oo..X ",
" XXXXX...ooOOooooo.ooOOo.oo..ooooooOOoo...XXXXX ",
"OOOOOOOOOOOOOOOOOOOOOOOOOOOOOOOOOOOOOOOOOOOOOOOO",
" oo....oOO.ooooo..o....oo..OO...ooooo.OOo....oo ",
" X......OO.................OO.........OO......X ",
" XX..XX.OO...........XX....OO.........OO.XX..XX ",
" XXXXXXXOOXXXXXXXXXXXXXXXXXOOXXXXXXXXXOOXXXXXXX ",
"OOOOOOOOOOOOOOOOOOOOOOOOOOOOOOOOOOOOOOOOOOOOOOOO",
" .......o...............O..............o....... ",
" .XXXXXXo.X.XXXXX.XXXXXXO.X.XXXXXXXX.X.oXXXXXX. ",
"    XX  ..     X    XX  ..     XX     ..  XX    ",
"        ..              ..            ..        "
};
