/* XPM */
static char *result[] = {
/* columns rows colors chars-per-pixel */
"18 24 8 1 ",
"  c black",
". c #000101",
"X c #3A0911",
"o c #3B0B13",
"O c #811426",
"+ c #A11B31",
"@ c white",
"# c None",
/* pixels */
"#####XXXXXXX######",
"####X++++++OX#####",
"###X+XXXX+++OXXX##",
"##X+X    X+++OOOX#",
"#X+X      X++OOOX#",
"#X+X      X++OOX##",
"#X+X      X+OOX###",
"#X+X@   @ X+OX####",
"#XOX      X+OX####",
"#XOX     X+OOX####",
"##XOX   XOOOXXX###",
"##XXOXXXOOXX++OX##",
"###X+++++++++++X##",
"###XO+++++++++++X#",
"###XO++++O+++++OX#",
"###X++++O++++++OX#",
"##XOO++OXO+++++OOX",
"##XOO+OOXOO+O+OOOX",
"##XOOOOX XOO+OOOOX",
"###XXOOX  XOOOOOX#",
"###XOXX   XOOXXX##",
"####o.. ###XX ####",
"########  ####  ##",
"######### ########"
};
