/* XPM */
static char *result[] = {
/* columns rows colors chars-per-pixel */
"18 27 6 1 ",
"  c black",
". c #3A0911",
"X c #811426",
"o c #A11B31",
"O c white",
"+ c None",
/* pixels */
"+++++++.......++++",
"++++++.ooooooX.+++",
"+++++.o....oooX.++",
"++++.o.    .oooX.+",
"+++.o.      .ooX.+",
"+++.o.O   O .ooXX.",
"+++.o.O   O .oXXX.",
"+++.o.O   O .oX.X.",
"+++.X.      .oX.X.",
"+++.X.     .oXX..+",
"++++.X.   .XXX.+++",
"+++++.X...XX..++++",
"++++.XoooooXXX.+++",
"+++.XoooooooooX.++",
"+++.XoooooooooX.++",
"+++.ooooooooooo.++",
"++.Xooooooooooo.++",
"++.XooooXoooooX.++",
"+.XooooXooooooX.++",
".XXXooX.XoooooX.++",
".XXXoXX.XXoXoXX.++",
".XXXXX. .XXoXXX.++",
"+.X.XX.  .XXXX.+++",
"++.XX.   .XX.X.+++",
"+++... ++...+..+++",
"++++  ++++ +++++++",
"++++ ++++++ ++++++"
};
