/* XPM */
static char *result[] = {
/* columns rows colors chars-per-pixel */
"29 12 5 1 ",
"  c black",
". c #3A0911",
"X c #811426",
"o c #A11B31",
"O c None",
/* pixels */
"OOO........OOOOOOOOOOOOOOOOOO",
"OO.oooooooo...OOOOOOOOOOOOOOO",
"O.oooooooooooo.OOOOOOOOOOOOOO",
"O.oooooooooooo.OOOOOOOOOOOOOO",
".ooooooooooooo......OOOOOOOOO",
".XooooooooX...Xooooo...OOOOOO",
".ooooooooooXXoooooooooo.OOOOO",
".XoooooooooooooooooooooX.OOOO",
".XXoooooooooooooooooooooX.OOO",
".XXXoooXXXXooXXXXXXXXooXXX.OO",
"O.XXXXXXXXXXXXXXXXXXXXXXXX.OO",
"OO........................   "
};
