/* XPM */
static char *result[] = {
/* columns rows colors chars-per-pixel */
"29 11 5 1 ",
"  c black",
". c #3A0911",
"X c #811426",
"o c #A11B31",
"O c None",
/* pixels */
"OOO........OOOOOOOOOOOOOOOOOO",
"OO.oooooooo..OOOOOOOOOOOOOOOO",
"O.ooooooooooo.OOOOOOOOOOOOOOO",
"O.oooooooooooo.OOOOOOOOOOOOOO",
".oooooooX.oooo......OOOOOOOOO",
".XoooooooX.oo.Xooooo...OOOOOO",
".oooooooooX..oooooooooo.OOOOO",
".XoooooooooXXooooooooooX.OOOO",
".XXoooooooooooooooooooooX.OOO",
".XXXXXXXXXXXXXXXXXXXXXXXXX.OO",
"O.........................   "
};
