/* XPM */
static char *result[] = {
/* columns rows colors chars-per-pixel */
"17 25 6 1 ",
"  c black",
". c #3A0911",
"X c #811426",
"o c #A11B31",
"O c white",
"+ c None",
/* pixels */
"+++++.......+++++",
"++++.ooooooX.++++",
"+++.o....oooX.+++",
"++.o.    .oooX.++",
"+.o.      .ooXX.+",
"+.o.      .ooXXX.",
"+.o.O   O .oXXXX.",
"+.o.O   O .oX...+",
"+.X.      .oX.+++",
"+.X.     .oXX.+++",
"++.X.   .XXX..+++",
"++..X...XX..XX.++",
"++.XoooooooooX.++",
"++.ooooooooooo.++",
"++.Xooooooooooo.+",
"++.XooooXoooooX.+",
"+.XooooXooooooX.+",
".XXXooX.XoooooX.+",
".XXXoXX.XXoXoXX.+",
".XXXXX. .XXoXXX.+",
"+.X.XX.  .XXXXX.+",
"++.X..   .XX...++",
"+++.  +++ ..+++++",
"++++  ++++ ++++++",
"++++++ ++++ +++++"
};
