/* XPM */
static char *ghost_attack_01704299058[] = {
/* columns rows colors chars-per-pixel */
"35 35 17 1 ",
"  c None",
". c black",
"X c #3A0911",
"o c #3B0A12",
"O c #3C0B13",
"+ c #3E0E16",
"@ c #811426",
"# c #811527",
"$ c #821628",
"% c #83192A",
"& c #851B2D",
"* c #A11B31",
"= c #A11C32",
"- c #A21D33",
"; c #A42237",
": c #AD6672",
"> c white",
/* pixels */
"                                   ",
"                                   ",
"                                   ",
"             XXXXXXX               ",
"            X@******X              ",
"           X@***XXXX*X             ",
"          X@***X....X*X            ",
"          X@**X......X*X           ",
"         X@@**X......X*X           ",
"         X@@@*X.>...>X*X           ",
"         X@X@*X.>...>X*X           ",
"         X@X@*X......X@X           ",
"          XX@@*X.....X@X           ",
"            X@@@X...X@X            ",
"             XX@@XXX@X             ",
"            X@@@*****@X            ",
"           X@*********@X           ",
"           X@*********@X           ",
"           X***********X           ",
"          X@***********X           ",
"          X@******@****@X          ",
"          X@******@=**=@X          ",
"          X@*****@X@==$@X          ",
"         X@@@*@*@@X@%;%@X          ",
"         X@@@@*@@X.+&:&$X          ",
"         X@X@@@@X..X%&+$X          ",
"          XX@X@@X...X$@X           ",
"           XX XXX  .XXX            ",
"              ..    .              ",
"               .    .              ",
"               .    .              ",
"                                   ",
"                                   ",
"                                   ",
"                                   "
};
