/* XPM */
static char *ghost_attack_11704299058[] = {
/* columns rows colors chars-per-pixel */
"35 35 23 1 ",
"  c None",
". c black",
"X c #3A0911",
"o c #3B0A12",
"O c #3D0D15",
"+ c #401118",
"@ c #471921",
"# c #811426",
"$ c #811527",
"% c #831829",
"& c #851B2D",
"* c #A11B31",
"= c #A11C32",
"- c #A21F34",
"; c #892434",
": c #A42237",
"> c #A72A3F",
", c #913242",
"< c #923343",
"1 c #AD394C",
"2 c #AE394C",
"3 c #E3BBC2",
"4 c white",
/* pixels */
"                                   ",
"                                   ",
"                                   ",
"                                   ",
"             XXXXXXX               ",
"            X#******X              ",
"           X#***XXXX*X             ",
"          X#***X....X*X            ",
"          X#**X......X*X           ",
"         X##**X......X*X           ",
"         X###*X......X*X           ",
"         X#X#*X.4...4X*X           ",
"         X#X#*X.4...4X#X           ",
"          XX##*X.....X#X           ",
"            X###X...X#X            ",
"             XX##XXX#X             ",
"            X###*****#X            ",
"           X#*********#X           ",
"           X#*********$o           ",
"           X*******=:::O           ",
"          X#******=:>12@           ",
"          X#******$:133,+          ",
"          X#******#:133,+          ",
"          X#*****#X%>1,;O          ",
"         X###=#*##X$%:&%X          ",
"         X####*##X.X$$$$X          ",
"         X#X####X..X##X#X          ",
"          XX#X##X...X##X           ",
"           XX XXX  .XXX            ",
"              .      .             ",
"                                   ",
"                                   ",
"                                   ",
"                                   ",
"                                   "
};
