/* XPM */
static char *ghost_attack_61704299059[] = {
/* columns rows colors chars-per-pixel */
"35 35 13 1 ",
"  c None",
". c black",
"X c #3A0911",
"o c #3B0A12",
"O c #3D0D15",
"+ c #45171E",
"@ c #4C1F26",
"# c #811426",
"$ c #811527",
"% c #831829",
"& c #841A2B",
"* c #A11B31",
"= c white",
/* pixels */
"                                   ",
"                                   ",
"                                   ",
"                                   ",
"                XXXXXXX            ",
"               X#******X           ",
"              X#***XXXX*X          ",
"             X#***X....X*X         ",
"            X##**X......X*X        ",
"            X##**X......X*X        ",
"            X###*X.=...=X*X        ",
"             XX#*X.=...=X*X        ",
"              X#*X......X#X        ",
"              X##*X.....X#X        ",
"               X###X...X#X         ",
"              X#XX##XXX#X          ",
"             X#*********#X         ",
"            XX#*********#X         ",
"            X#***********X         ",
"            X************#X        ",
"           X#*******#****#X        ",
"           X#******#X#**##X        ",
"           O##**#*##X##*##X        ",
"           +&#*#*##X.X####X        ",
"         ==@&X####X..X####X        ",
"         =  O####X....X##X         ",
"             XXXX..   ..X          ",
"                 .     .           ",
"                 .     .           ",
"                .      .           ",
"                                   ",
"                                   ",
"                                   ",
"                                   ",
"                                   "
};
