/* XPM */
static char *ghost_left_attack_51704299184[] = {
/* columns rows colors chars-per-pixel */
"35 35 62 1 ",
"  c None",
". c black",
"X c #010101",
"o c gray1",
"O c #3A0911",
"+ c #3B0A12",
"@ c #3C0C14",
"# c #3F0F17",
"$ c #3F1018",
"% c #202020",
"& c #44161D",
"* c #461820",
"= c #491C24",
"- c #4C1F26",
"; c #53282F",
": c #562C33",
"> c #5A3137",
", c #5C333A",
"< c gray26",
"1 c #755359",
"2 c #7A595E",
"3 c #676767",
"4 c #686868",
"5 c #811426",
"6 c #811527",
"7 c #821628",
"8 c #841A2C",
"9 c #A11B31",
"0 c #A11C32",
"q c #A21D33",
"w c #A21E33",
"e c #872031",
"r c #892334",
"t c #8A2535",
"y c #8B2637",
"u c #A42137",
"i c #A5253A",
"p c #A6273C",
"a c #A6283C",
"s c #913141",
"d c #963C4B",
"f c #983E4D",
"g c #983F4E",
"h c #A82C40",
"j c #A82D41",
"k c #A92F43",
"l c #AC374A",
"z c #AD384B",
"x c #9B4553",
"c c #9C4654",
"v c #9C4755",
"b c #9E4957",
"n c #9E4A58",
"m c #A35360",
"M c #A45562",
"N c #A55764",
"B c #A85D69",
"V c #BC5B6B",
"C c #BD5E6E",
"Z c #AB616D",
"A c #AC6470",
"S c white",
/* pixels */
"                                   ",
"                                   ",
"                                   ",
"                                   ",
"                                   ",
"               OOOOOOO             ",
"              O9999995OOO          ",
"             O9OOOO999555O         ",
"            O9O....O99955O         ",
"           O9O......O9955O         ",
"           O9O......O995O          ",
"           O9O......O95O           ",
"           O9O......O95O           ",
"           O5O......O95O           ",
"           O5O.....O955O           ",
"            O5O...O555O            ",
"             O5OOO55OO5O           ",
"            O59999999995O          ",
"            O599999999955O         ",
"            O9999999999955O        ",
"           @7qq99999999995OO       ",
"           *rpuqq7qqqqq9955O       ",
"         S>fxfzjy=yjaauw995O       ",
"          ,SSSVmN1BBCnzp755O       ",
"          -dbMSSSSSSSSZs85O        ",
"          &8ysbASSSSSSSc&7O        ",
"           +@8y:<3SSSSSxeO         ",
"             O.    4SS2:$          ",
"               .      %            ",
"                                   ",
"                                   ",
"                                   ",
"                                   ",
"                                   ",
"                                   "
};
