/* XPM */
static char *ghost_left_attack_41704299184[] = {
/* columns rows colors chars-per-pixel */
"35 35 24 1 ",
"  c None",
". c black",
"X c #3A0911",
"o c #3B0A12",
"O c #3C0B13",
"+ c #3C0C14",
"@ c #43151C",
"# c #532930",
"$ c #7C5B60",
"% c #811426",
"& c #811527",
"* c #821628",
"= c #841A2C",
"- c #A11B31",
"; c #A11C32",
": c #A21D33",
"> c #882132",
", c #8A2535",
"< c #A42137",
"1 c #913242",
"2 c #9F4B59",
"3 c #A65966",
"4 c #806166",
"5 c white",
/* pixels */
"                                   ",
"                                   ",
"               5                   ",
"                                   ",
"             5                     ",
"            5                      ",
"           5                       ",
"          55      XXXXXXX          ",
"         55      X------%XX        ",
"         55     X-XXXX---%%X       ",
"        555    X-X....X---%%X      ",
"        555   X-X......X--%%X      ",
"        555   X-X......X--%%X      ",
"       5555   X-X......X-%%X       ",
"       5555   X-X5...5.X-%X        ",
"       5555   X%X......X-%X        ",
"      55555   X%X.....X-%%X        ",
"      55555    X%X...X%%%X         ",
"      55555     X%XXX%%XX%X        ",
"      555555   X%---------%X       ",
"      555555   X%---------%XX      ",
"      5555555  +-----------%%X     ",
"       555555  @:-----------%X     ",
"       555555541<:--%-------%%X    ",
"       555555552>:-%X%-------%X    ",
"        55555553,:%%X%%-%--%%%X    ",
"         5555553,%%X.X%%-%%%%X     ",
"         5555552>*%X..X%%%%X%X     ",
"          5555$#=*X....X%%%%X      ",
"                X.    ..XXXX       ",
"                 .     ..          ",
"                  .      .         ",
"                                   ",
"                                   ",
"                                   "
};
