/* XPM */
static char *ghost_left_attack_21704299184[] = {
/* columns rows colors chars-per-pixel */
"35 35 22 1 ",
"  c None",
". c black",
"X c #3A0911",
"o c #3B0A12",
"O c #3F1018",
"+ c #42141B",
"@ c #53282F",
"# c #643E44",
"$ c #7A595E",
"% c #811426",
"& c #811527",
"* c #821628",
"= c #A11B31",
"- c #A11C32",
"; c #A21D33",
": c #872031",
"> c #A42137",
", c #A5253A",
"< c #A6273C",
"1 c #913141",
"2 c #9C4755",
"3 c white",
/* pixels */
"                                   ",
"                                   ",
"                                   ",
"                XXXXXXX            ",
"               X======%X           ",
"              X=XXXX===&X          ",
"             X=X....X===&X         ",
"            X=X......X==%X         ",
"            X=X......X==%%X        ",
"            X=X3...3.X=%%%X        ",
"            X=X3...3.X=%X%X        ",
"            X&X......X=%X%X        ",
"            O*X.....X=%%XX         ",
"             +*X...X%%%X           ",
"          33  O&XXX&%XX            ",
"         3333#:-====%%&X           ",
"         33332<-=======%X          ",
"          33$1>-=======%X          ",
"            @,-=========X          ",
"            +-==========&X         ",
"           X&====%======&X         ",
"           X%====%======%X         ",
"           X%%==%X%=====%X         ",
"           X%%=%%X%%=%=%%%X        ",
"           X&%%%X.X&%=%%%%X        ",
"           X%X%%X..X%%%%X%X        ",
"            X&%X...X%%X&XX         ",
"             XXX.  XXX XX          ",
"               .    ..             ",
"               .    .              ",
"               .    .              ",
"                                   ",
"                                   ",
"                                   ",
"                                   "
};
