/* XPM */
static char *ghost_left_attack_31704299184[] = {
/* columns rows colors chars-per-pixel */
"35 35 26 1 ",
"  c None",
". c black",
"X c #010101",
"o c #020202",
"O c #070707",
"+ c #0B0B0B",
"@ c #3A0911",
"# c #3B0A12",
"$ c #3C0B13",
"% c #3F1018",
"& c #45171E",
"* c #481A22",
"= c #53282F",
"- c #532930",
"; c #735056",
": c #745157",
"> c #811426",
", c #A11B31",
"< c #A11C32",
"1 c #A21D33",
"2 c #A6283C",
"3 c #A82B40",
"4 c #B75061",
"5 c #B75161",
"6 c #C06776",
"7 c white",
/* pixels */
"                                   ",
"                                   ",
"           7777                    ",
"          777777                   ",
"          777777 *@@@@@@           ",
"          777777:31,,1,>@          ",
"          7777774&@@@,,,>@         ",
"           77776-Oooo@,,,>@        ",
"             ;4=+ooooo&,,>@        ",
"             *2%7ooo7o@,,>>@       ",
"             $1@7ooo7o&,>>>@       ",
"             @,@oooooo&,>@>@       ",
"             @>@oooooo@,>@>@       ",
"             @>@ooooo@,=>@@        ",
"              @>@ooo@>>>@          ",
"               @=@@@>>@@           ",
"              @>,,,,,>>>&          ",
"             @>,,,,,,,,,>&         ",
"             @>,,,,,,,,,>@         ",
"             @,,,,,,,,,,,@         ",
"            @,,,,,,,,,,,>$         ",
"           @>,,,,>,,,,,,>$         ",
"           @>,,,,>,,,,,,>@         ",
"           @>>,,>&>,,,,,>@         ",
"           @>>,>>&>>,>,>>>$        ",
"           @>>>>&O&=>,>>>>$        ",
"           @>@>>@oo@>>>>@>@        ",
"            @>>@ooo@>>@>@@         ",
"             @@@o  @@@ @@          ",
"               o    oo             ",
"               o    o              ",
"               o    o              ",
"                o   o              ",
"                                   ",
"                                   "
};
