/* XPM */
static char *result[] = {
/* columns rows colors chars-per-pixel */
"16 28 6 1 ",
"  c black",
". c #3A0911",
"X c #811426",
"o c #A11B31",
"O c white",
"+ c None",
/* pixels */
"++++.......+++++",
"+++.Xoooooo.++++",
"++.Xooo....o.+++",
"+.Xooo.    .o.++",
"+.Xoo.      .o.+",
".XXoo. O   O.o.+",
".XXXo. O   O.o.+",
".X.Xo.      .o.+",
".X.Xo.      .X.+",
"+..XXo.     .X.+",
"+++.XXX.   .X.++",
"++++..XX...X.+++",
"+++.XXXoooooX.++",
"++.XoooooooooX.+",
"++.XoooooooooX.+",
"++.ooooooooooo.+",
"++.ooooooooooo.+",
"++.ooooooXoooo.+",
"++.ooooooXoooo.+",
"++.oooooX.XooX.+",
"+.XXoXoXX.XXoX.+",
"+.XXXoXX. .XXXX.",
"+.XXXXX.  .XX.X.",
"+.XX.XX.   .XX.+",
"++..+...++ ...++",
"+++++  ++++ ++++",
"++++++ ++++ ++++",
"++++++ ++++ ++++"
};
