/* XPM */
static char *result[] = {
/* columns rows colors chars-per-pixel */
"19 27 6 1 ",
"  c black",
". c #3A0911",
"X c #811426",
"o c #A11B31",
"O c white",
"+ c None",
/* pixels */
"+++++.......+++++++",
"++++.Xoooooo.++++++",
"+...Xooo....o.+++++",
".XXXooo.    .o.++++",
".XXXoo.      .o.+++",
"+.XXoo.      .o.+++",
"++.XXo.      .o.+++",
"+++.Xo. O   O.o.+++",
"+++.Xo. O   O.X.+++",
"+++.XXo.     .X.+++",
"++++.XXX.   .X.++++",
"+++++..XX...X.+++++",
"++++.XXXoooooX.++++",
"+++.XoooooooooX..++",
"++..XoooooooooXXX.+",
"+.XXoooooooooooXX.+",
".XXXXoooooooooooXX.",
".XXXooooooXoooooXX.",
".XXXooooooXooooo.X.",
"+.XXX.oXoX.XoooXX.+",
"++..XX.XXX.XXoX..++",
"++++...... ....++++",
"++++++       ++++++",
"++++++  +++  ++++++",
"+++++++ ++++ ++++++",
"+++++++ ++++ ++++++",
"++++++ ++++ +++++++"
};
