/* XPM */
static char *result[] = {
/* columns rows colors chars-per-pixel */
"17 27 6 1 ",
"  c black",
". c #3A0911",
"X c #811426",
"o c #A11B31",
"O c white",
"+ c None",
/* pixels */
"+++++.......+++++",
"++++.Xoooooo.++++",
"+++.Xooo....o.+++",
"++.Xooo.    .o.++",
"+..Xoo.      .o.+",
".XXXoo.      .o.+",
".XXXXo. O   O.o.+",
"+...Xo. O   O.o.+",
"+++.Xo.      .X.+",
"+++.XXo.     .X.+",
"++++.XXX.   .X.++",
"+++++..XX...X.+++",
"++++.XXXoooooX.++",
"+++.XoooooooooX.+",
"+++.XoooooooooX.+",
"++.XoooooooooooX.",
"++.XoooooooooooX.",
"++.XooooooXooooX.",
"+.XXooooooXooooX.",
"+.XXoooooX.XooXX.",
"+.XXXXoXX. .XXXX.",
"+.X.XXXX.  .XX.X.",
"++.+.....   ....+",
"++++++  +++  ++++",
"++++++  ++++ ++++",
"+++++++ ++++ ++++",
"+++++++ ++++ ++++"
};
