/* XPM */
static char *result[] = {
/* columns rows colors chars-per-pixel */
"17 26 6 1 ",
"  c black",
". c #3A0911",
"X c #811426",
"o c #A11B31",
"O c white",
"+ c None",
/* pixels */
"+++++.......+++++",
"++++.Xoooooo.++++",
"+++.Xooo....o.+++",
"+..Xooo.    .o.++",
".XXXoo.      .o.+",
".XXXoo.      .o.+",
"+.X.Xo. O   O.o.+",
"++..Xo. O   O.o.+",
"+++.Xo.      .X.+",
"+++.XXo.     .X.+",
"++++.XXX.   .X.++",
"+++++..XX...X.+++",
"++++.XXXoooooX.++",
"+++.Xooooooooo.++",
"+++.XoooooooooX.+",
"++.XXoooooooooo.+",
"++.XooooooXooooX.",
"+.XXooooooXooooo.",
"+.XXXXoXoX.XoooX.",
"+..XXXXXXX.XXoX..",
"+++..XXXX. .XXXX.",
"+++++....   ....+",
"++++++  +++  ++++",
"++++++  ++++ ++++",
"+++++++ ++++ ++++",
"++++++ ++++ +++++"
};
