/* XPM */
static char *result[] = {
/* columns rows colors chars-per-pixel */
"18 28 6 1 ",
"  c black",
". c #3A0911",
"X c #811426",
"o c #A11B31",
"O c white",
"+ c None",
/* pixels */
"+++++.......++++++",
"++++.Xoooooo.+++++",
"+++.Xooo....o.++++",
"++.Xooo.    .o.+++",
"++.Xoo.      .o.++",
"+.XXoo.      .o.++",
".XXXXo. O   O.o.++",
".XX.Xo. O   O.o.++",
"+...Xo.      .X.++",
"+++.XXo.     .X.++",
"++++.XXX.   .X.+++",
"+++++..XX...X.++++",
"++++.XXXoooooX.+++",
"+++.XoooooooooX.++",
"+++.XoooooooooX.++",
"+++.ooooooooooo.++",
"++.XoooooooooooX.+",
"++.XooooooXooooX.+",
"+.XXooooooXooooXX.",
"+.XXoooooX.XoooXX.",
"+.XXooXoXX.XXoX.X.",
"+.XXXXoXX. .XXXX..",
"++.XX.XX.   .X..++",
"+++.....     .++++",
"++++++  +++  +++++",
"++++++  ++++ +++++",
"+++++++ ++++ +++++",
"+++++++ ++++ +++++"
};
