/* XPM */
static char *result[] = {
/* columns rows colors chars-per-pixel */
"38 48 98 2 ",
"   c #12130F",
".  c #151210",
"X  c #191614",
"o  c #171A16",
"O  c #1B1916",
"+  c #1C1C19",
"@  c #221E1C",
"#  c #1E221D",
"$  c #23211E",
"%  c #1A1D21",
"&  c #1D2225",
"*  c #1F2428",
"=  c #242422",
"-  c #2B2623",
";  c #262A24",
":  c #2C2A26",
">  c #22262A",
",  c #24292D",
"<  c #2B2C2A",
"1  c #312A27",
"2  c #342D2A",
"3  c #2C312B",
"4  c #35342E",
"5  c #3A322F",
"6  c #222B33",
"7  c #242F3A",
"8  c #273139",
"9  c #2A353E",
"0  c #333431",
"q  c #3A3531",
"w  c #353B34",
"e  c #3C3C36",
"r  c #3C3C3A",
"t  c #413F3D",
"y  c #374035",
"u  c #3F433E",
"i  c #263644",
"p  c #273B4C",
"a  c #283D4F",
"s  c #293E51",
"d  c #294155",
"f  c #2B455C",
"g  c #2E4B64",
"h  c #2F4E69",
"j  c #304E69",
"k  c #2F506B",
"l  c #30516C",
"z  c #325573",
"x  c #345876",
"c  c #345B7B",
"v  c #434342",
"b  c #464946",
"n  c #4B4B4B",
"m  c #50504F",
"M  c #545454",
"N  c #5B5B5B",
"B  c #616261",
"V  c #365E80",
"C  c #366184",
"Z  c #396385",
"A  c #37658A",
"S  c #39668A",
"D  c #3B698D",
"F  c #3B6D94",
"G  c #3B6F98",
"H  c #3F7196",
"J  c #3C729C",
"K  c #3D76A2",
"L  c #3E78A5",
"P  c #3E7AA8",
"I  c #416F93",
"U  c #417196",
"Y  c #42759C",
"T  c #44789E",
"R  c #4077A1",
"E  c #437AA4",
"W  c #4A7FA7",
"Q  c #437DAA",
"!  c #4A80A7",
"~  c #4581AD",
"^  c #4983AD",
"/  c #4683B1",
"(  c #4A86B2",
")  c #4C89B5",
"_  c #4D8DBB",
"`  c #508CB7",
"'  c #528FBB",
"]  c #5492BD",
"[  c #5496C4",
"{  c #5698C6",
"}  c #5A9AC6",
"|  c #579AC8",
" . c #5A9CCA",
".. c #5EA0CD",
"X. c #5AA1D0",
"o. c #61A2CE",
"O. c #63A5D0",
"+. c None",
/* pixels */
"+.+.+.+.+.+.+.+.+.+.+.+.+.+.+.+.+.x z c c +.+.+.+.+.+.+.+.+.+.+.+.+.+.+.+.+.",
"+.+.+.+.+.+.+.+.+.+.+.+.+.+.z h C K A J J F z z +.+.+.+.+.+.+.+.+.+.+.+.+.+.",
"+.+.+.+.+.+.+.+.+.+.+.+.g C L L Q _ H ) _ / L K F g +.+.+.+.+.+.+.+.+.+.+.+.",
"+.+.+.+.+.+.+.+.+.+.+.j z / / ) ^ R I D Y E ( ( / F z f +.+.+.+.+.+.+.+.+.+.",
"+.+.+.+.+.+.+.+.+.x A K I T G D C c c k c V S F Y T ! F c z +.+.+.+.+.+.+.+.",
"+.+.+.+.+.+.+.g c J Q / F c V c c z z g z x c V c Z ~ / K F g +.+.+.+.+.+.+.",
"+.+.+.+.+.+.f c R ( ( D c z j z l g a p f l z z l c S E ) Q A g +.+.+.+.+.+.",
"+.+.+.+.+.+.c L ( Y Z x j f f i 6 > @ @ * 6 7 d d g z V F ^ P F +.+.+.+.+.+.",
"+.+.+.+.+.z K / Y V z g 6 @ @ @ - - 1 1 1 - - @ @ & f z c D ( Q c +.+.+.+.+.",
"+.+.+.+.g Z ^ H V z a , - 1 5 - 1 2 1 1 2 2 - q 2 1 - 8 j c F E F g +.+.+.+.",
"+.+.+.+.C c S A x a < 1 5 q 1 @ @ . . . . @ @ - 5 5 1 2 i l C C z C +.+.+.+.",
"+.+.+.V / W c c p = 2 - X . . . . . . . . . . .   . @ 5 - * c c R / F +.+.+.",
"+.+.g F ( Y z d = 1 2 X . . . . . . . . . . . . . . . = 2 - i l I ( E V +.+.",
"+.+.f D ^ S z 6 - 1 X . . . . . . . . . . . . . . . . . $ 5 + f c T Q V +.+.",
"X.Y g c ^ Z l = - $ . . . . . . . . . . . . . . . . . = - 1 + s c E E c Z ' ",
"l F ^ l ^ S j , q - = + . . . . . . . . . . . . . . + O < 2 - a C E D D W x ",
"g V U z T V h , 2 = r + X . . . . . . . . . . . . . # O ; w = p z Y c Z D l ",
"+.h c V A V z , q ; m O O . . . . . . . . . . . . . = < < e = p l c V Z S z ",
"+.j V V c x k > 1 = m > o . . . . . . . . . . . . . O 3 4 q @ a z z c Z c +.",
"+.+.g j j h g * - + < w . . . . . . . . . . . . . . - v # 4 @ p g j z j +.+.",
"+.+.f V c j j = - O - r = X . . . . . . . . . . . = M n = 4 + s h c C z +.+.",
"+.+.f D S c l > - @ M i < + . . . . . . . . . . X < M M 3 4 $ s z C R S +.+.",
"+.+.f K W D z , 5 : B m - $ . . . . . . . . . . X - n n ; e = d z D ( U +.+.",
"+.+.f K ! D j - 2 $ t M < % . . . . . . . . . . + > n v $ q @ a z J Q D +.+.",
"+.+.f J L C h > 2 - 0 n < $ . . . . . . . . . . + < v t < q $ a z K P C +.+.",
"+.+.f F J c k * - t B 0 < = . . . . . . . . . . + < q v b < $ a z G K C +.+.",
"+.+.f G J c j > q r M = $ + . . . . . . . . . . O - $ q b e = a z F L C +.+.",
"+.+.f H ~ c z > - < n + X . . . . . . . . . . . . @ O i u 5 $ s z F P C +.+.",
"+.+.f G ( c z , q : n r @ . . . . .   . . . . . X - 4 m e e - d c F P C +.+.",
"+.+.f G W c z , 2 - n r - . . . .   . . . . . . + > b v 3 w $ d z F L C +.+.",
"+.+.f J Z l j > 5 $ 0 v , O . . . . . . . . . . X - b 4 3 e $ a l c K C +.+.",
"+.+.f F c z j > 5 = > r < O . . . . . . . . . . X < n o 3 e - s l x F c +.+.",
"+.+.f z l g l , 2 $ # w < O   . . . . . . . . . . 0 M + 3 4 $ d g g l j f +.",
"+.+.D R R U R 8 : $ # $ < + . . . . . . . . . . . 0 0 < 3 4 $ c ! T J ! S +.",
"+.+.I W ! E E 7 $ + $ o - . . . . . . . .   . . X , + < 3 4 O z Y ! ! T c +.",
"+.! C C S S Z , 1 @ # o =   . . . . . . .   . . . = + ; ; 5 $ g Z A A Z D +.",
"P _ _ ( _ _ _ 9 5 $ # + + . . . . . . . . . . .   X + & ; y $ I ) _ _ _ _ ~ ",
"( c A J K G G 7 5 ; ; # + . . . . . . . . . . .   X # # ; t $ j H J G F c J ",
"_ c A F D C c 6 2 $ & # O . . . . . . . . . . . . X # 3 w e $ f C A A D c J ",
"[ C V V c c c * $ ; ; # O . . . . . . . . . . . . X # ; y 3 @ d c c c C c ~ ",
" .[ _ _ _ _ _ 8 : $ # o o . . . . .   . . . . .   X # = 3 : O D _ _ _ _ _ | ",
"c L P P K G F 6 $ $ ; X . . . . .   . . . . . . .   . 3 3 - @ l H K P K F A ",
"x G L K F A C 7 = * * & % % % % % % % % % % % % % % + % & > % h C F J J J C ",
"x A V V c c z f l x l k g h k z z k k k j j j j h g l k l k f j c c c C C C ",
"h j z z z z z z D K J G C z A K J F F F G F G G C z S F F A x j k z z z z z ",
"h A K Q Q L E Q P / Q Q F F L [ [ [ _ ) ] [ [ ) J V F ~ Q W K F F F F F D C ",
"x E {  . .} [  .| | | _ G J / { {  . . . .o.o.o.] F ^ [ {  . . .] ] _ ) W F ",
"V E ' ' ] ] ' ] ' ] ] ) G J L Q Q ) ' ' ' ] ] ] ` J L Q ^ ] ] ] ] ] ' _ ) ! "
};
