/* XPM */
static char *result[] = {
/* columns rows colors chars-per-pixel */
"38 48 94 2 ",
"   c #12130F",
".  c #151210",
"X  c #191715",
"o  c #161915",
"O  c #1B1A17",
"+  c #1C1C1A",
"@  c #211E1C",
"#  c #1E221D",
"$  c #22221E",
"%  c #28231F",
"&  c #1D2023",
"*  c #242422",
"=  c #2A2623",
"-  c #252924",
";  c #2B2926",
":  c #21262B",
">  c #2C2D2B",
",  c #302A26",
"<  c #332D2A",
"1  c #2C312B",
"2  c #35302C",
"3  c #39312E",
"4  c #313A2F",
"5  c #222B33",
"6  c #242F3A",
"7  c #24323E",
"8  c #333332",
"9  c #3B3431",
"0  c #343B33",
"q  c #3A3C3A",
"w  c #364035",
"e  c #394337",
"r  c #3D433C",
"t  c #3C483A",
"y  c #253442",
"u  c #273847",
"i  c #273B4C",
"p  c #2A3D4D",
"a  c #273D51",
"s  c #283E51",
"d  c #2A4156",
"f  c #2B445B",
"g  c #2E4B64",
"h  c #2F4E69",
"j  c #304A65",
"k  c #304E6A",
"l  c #31516D",
"z  c #325573",
"x  c #335877",
"c  c #355C7C",
"v  c #434343",
"b  c #474A47",
"n  c #494A47",
"m  c #4B4C4B",
"M  c #545454",
"N  c #5B5B5B",
"B  c #5F605E",
"V  c DimGray",
"C  c #365F81",
"Z  c #385F80",
"A  c #376285",
"S  c #396385",
"D  c #37658A",
"F  c #39668A",
"G  c #3B698E",
"H  c #3B6C93",
"J  c #3A6F98",
"K  c #3E7096",
"L  c #3D719B",
"P  c #3D76A1",
"I  c #3E79A6",
"U  c #3E7AA8",
"Y  c #406D8E",
"T  c #406D90",
"R  c #427297",
"E  c #42759D",
"W  c #4377A0",
"Q  c #437AA3",
"!  c #497EA6",
"~  c #427DAA",
"^  c #4681AD",
"/  c #4982AC",
"(  c #4684B1",
")  c #4986B2",
"_  c #4C89B5",
"`  c #4E8DBB",
"'  c #508CB5",
"]  c #508FBC",
"[  c #5191BF",
"{  c #5696C3",
"}  c #5897C4",
"|  c #5B9AC5",
" . c #599CC9",
".. c None",
/* pixels */
"..................................x z x c h ................................",
"............................z h D J D H P H z l ............................",
"........................h A I ~ ^ _ E Q _ ( ~ ~ J z ........................",
"......................h c ~ ) _ / E R A R Q ) ) ) H c g ....................",
"..................x D Q T W T G A c c l c c S H E E ' L x ..................",
"................c J ~ ( T Z C c x x z l x x c A c S / / P G g ..............",
"............g c U ( ! F C z l l g f u y d g k l l x A E ) ~ H h ............",
"............c P ) W A c h f d p 5 : + @ : : 5 d d g z A H ( U D ............",
"..........l W ) K A l k : @ = @ , , , < , , = % * * a k c G / ~ x ..........",
"........f c ^ E A x p : = < 3 < < < < < < < = 3 < , = 6 z c H ! F k ........",
"........H G A F z i ; < < < = O @ . . . . X X @ < < , < 5 g C C A H c ......",
"......x ^ / c c p % < < . . . . . . . . . .   . . . @ 3 % 6 x c Q ^ L ......",
"....z H ! W x f $ < < *   . . . . . . . . .   . . . . + 3 = 6 z F / ~ c ....",
"....k S / H l 7 = < v q . . . . . . . . . . . . . . + m ; , & f A ! ^ c ....",
"..! A x ! G k 5 , = n 0 + o . . . . . . . . . . . + * M = , @ d c Q Q c E ' ",
"..F Q x / H k 5 9 = q ; $ o . . . . . . . . . . O # * > ; < ; d A Q H H E z ",
"..c C x Y c g 5 9 + > q & X . . . . . . . . . . @ @ b + - ; * d z F z c S k ",
"..h c A S A l 5 9 # * 8 + X . . . . . . . . . . X . N 8 0 2 * d z c A S S ..",
"..j x x z z g 5 ; @ o - . o . . . . . . . . . .   $ > > 4 ; % s k l x c z ..",
"....g l l k f 5 = + > - * + . . . . . . . . . . . ; > . 0 = @ s j k z k ....",
"....k c c z j 5 , O B r 8 : X . . . . . . . . . = p n q e * $ d h c F x ....",
"....l D H S k 5 < @ r M 2 : O . . . . . . . . . , v M v e ; * f z A Q F ....",
"....z H P R k 5 9 & < N > ; O . . . . . . . . . ; m N - 1 < % f x G ^ F ....",
"....z H ! R j 5 3 9 m N 2 : O . . . . . . . . X > M N + 1 < * d x K ~ S ....",
"....k F P D g 5 < 9 q N > > O . . . . . . . . @ v N N ; 1 = * f z J I c ....",
"....k D L A g 5 < , > N q > + . . . . . . . . @ 2 n N q 4 = * s x J I c ....",
"....k F I C g 5 < + * m o + o . . . . . . . . @ O & M M 8 , * s z H U c ....",
"....k F _ A z 5 < O # v + * . . . . . . . . . . * > N n e ; % g x H U c ....",
"....h F _ S z 5 9 @ = N u > + . . . . . . . . + > v V e e 2 = f x H U c ....",
"....k D Q C g 5 3 X > M q > + . . . . . . . . + > m N # e > * f z F U c ....",
"....z D A z g 5 9 @ & > 9 < . . . . . . . . . O > 8 * # ; < = f l c K c ....",
"....h S c l k 5 9 + @ O > , . . . . . . . . . X > 8 * - - > = d k c D x ....",
"....l c c l z 7 < O $ # $ ; o   . . . . . . . . 2 q - > 1 ; $ h x x x x l ..",
"....F ^ / Q E d , O $ o # #     . . . . . . . . q * * - w ; % G ^ ^ ^ ^ c ..",
"..Y c G H F c 7 % O $ # O + . . . . . . . . . . 0 # - * 1 $ $ l S F S S x ..",
"../ E H H R G u 3 O + # o X . . .   . . . . . . $ + & # ; = % c R K K K Q ..",
"~ R ! ~ ) ( ~ d 9 + # # + . . . . . . . . . . . . # # # w 2 = F ) ) ) ~ E P ",
"` F D L L H A y 3 O - # o o . . . . . . . . . . . # 4 - e 1 * l H H H H c L ",
"{ F c C C c h 5 , $ 4 & o   . . . . . . . . . . . # # t e = @ f x c C C z L ",
"{ L A D A A C y = ; 0 - + o . . . . . . . . . . X + & w 1 * @ z A A A D F _ ",
"! _ ` _ ` ` Q p % $ # + o . . . . . . . . . . . O # o 0 ; @ + Y ` ` ` ( / ` ",
"l J U I P H A y $ + # + o o . . . . . . . . . . . o o 1 * + + z G J I I H G ",
"l G H H F A x s p d i i i i i i i i i i i i i i i i i i i i y l C A F G H F ",
"h x l z l l k g x G A c l l c A C C c c c C c c c g c c c c k k k z z l x x ",
"g x A H H H H H P U I I H c P ) ) ) ~ U ) ) _ ~ H c G I P H H c A A F D F S ",
"l G _ ` ` _ ( ` ` ` ` _ H H ^ {  . .{ {  . . .| ^ F L ` ` ] _ / Q Q I Q H G ",
"x P { { | | { | { { { { L L ^ ) _ ] { { { } | | { E ^ _ ` | | | | { { ] ) / ",
"............................................................................"
};
