/* XPM */
static char *result[] = {
/* columns rows colors chars-per-pixel */
"38 48 120 2 ",
"   c #0F130D",
".  c #10140E",
"X  c #121611",
"o  c #161915",
"O  c #191A17",
"+  c #1A1D1A",
"@  c #211E1C",
"#  c #1E221D",
"$  c #22231F",
"%  c #1E1F21",
"&  c #1F2124",
"*  c #1F2933",
"=  c #242422",
"-  c #292522",
";  c #252A24",
":  c #2B2A26",
">  c #242629",
",  c #20282E",
"<  c #2A2E29",
"1  c #312A27",
"2  c #332D2A",
"3  c #293027",
"4  c #2D332C",
"5  c #2E382D",
"6  c #32342E",
"7  c #3A322F",
"8  c #31392F",
"9  c #222D36",
"0  c #222F3B",
"q  c #24323C",
"w  c #333532",
"e  c #333B32",
"r  c #383A37",
"t  c #3B3C3B",
"y  c #364134",
"u  c #394337",
"i  c #3D443B",
"p  c #3E4A3C",
"a  c #40433F",
"s  c #414C3E",
"d  c #243442",
"f  c #273A4C",
"g  c #283C4E",
"h  c #283D50",
"j  c #2A4256",
"k  c #2B455C",
"l  c #2C485F",
"z  c #2C4760",
"x  c #2E4B64",
"c  c #2F4E69",
"v  c #314D64",
"b  c #304F6A",
"n  c #2F506C",
"m  c #30516D",
"M  c #325573",
"N  c #335976",
"B  c #385971",
"V  c #345B7B",
"C  c #444544",
"Z  c #454A44",
"A  c #4B4C4B",
"S  c #445241",
"D  c #4F524E",
"F  c #50514F",
"G  c #545454",
"H  c #555954",
"J  c #5D5D5C",
"K  c #5C635B",
"L  c #636363",
"P  c #676867",
"I  c #6C6D6C",
"U  c #6D726C",
"Y  c #737473",
"T  c #7B7B7B",
"R  c #365F81",
"E  c #376285",
"W  c #3A6484",
"Q  c #37668B",
"!  c #39668B",
"~  c #3A698E",
"^  c #3A6C94",
"/  c #3B6F98",
"(  c #3D7097",
")  c #3C729B",
"_  c #3D75A2",
"`  c #3E79A6",
"'  c #3F7BA9",
"]  c #406E91",
"[  c #427297",
"{  c #42759C",
"}  c #4177A0",
"|  c #447BA4",
" . c #487DA4",
".. c #457EAA",
"X. c #487FA9",
"o. c #4681AD",
"O. c #4A82AC",
"+. c #4683B1",
"@. c #4A86B3",
"#. c #4C89B5",
"$. c #4C8CB9",
"%. c #508FBC",
"&. c #5190BE",
"*. c #5394C2",
"=. c #5999C6",
"-. c #5A9DCA",
";. c #5EA1CD",
":. c #60A1CC",
">. c #65A7D0",
",. c #858585",
"<. c #8A8A8A",
"1. c #939393",
"2. c #9B9C9B",
"3. c #A1A1A1",
"4. c gray68",
"5. c #B4B4B4",
"6. c #C3C3C3",
"7. c gray79",
"8. c #D1D1D1",
"9. c None",
/* pixels */
"9.9.9.9.9.9.9.9.9.9.9.9.9.9.9.9.9.N x M M 9.9.9.9.9.9.9.9.9.9.9.9.9.9.9.9.9.",
"9.9.9.9.9.9.9.9.9.9.9.9.9.9.x M ^ ' V ' _ E c c 9.9.9.9.9.9.9.9.9.9.9.9.9.9.",
"9.9.9.9.9.9.9.9.9.9.9.9.c / ' ' #.$.! &.%...' | V z 9.9.9.9.9.9.9.9.9.9.9.9.",
"9.9.9.9.9.9.9.9.9.9.l N ~ $.o.O.{ { M ~ / ..X.@.o.V M z 9.9.9.9.9.9.9.9.9.9.",
"9.9.9.9.9.9.9.9.9.M / / [ [ ^ ~ R N N M N ~ ~ ^ | [ ..R m 9.9.9.9.9.9.9.9.9.",
"9.9.9.9.9.9.9.z Q | +...! N V N N N m m M N V V N { +...) M 9.9.9.9.9.9.9.9.",
"9.9.9.9.9.9.x ~ ..@.} R N M m b c h 0 d z b M b M V ! o.+._ N 9.9.9.9.9.9.9.",
"9.9.9.9.9.9.Q ..X.^ R M k f f > & % $ @ & & d f g m V E } +.) N 9.9.9.9.9.9.",
"9.9.9.9.9.N ..o.^ V m g = $ - - 1 1 7 2 1 1 = - = 9 l M W { +.^ x 9.9.9.9.9.",
"9.9.9.9.b W ..~ N z 9 - 1 7 7 - 1 : 1 : 1 1 1 7 2 - = g M W ) [ M 9.9.9.9.9.",
"9.9.9.N _ ! R E v 9 2 1 1 1 ; # 4 e p 3 e - ; : 2 - 2 - g V E N ) Q 9.9.9.9.",
"9.9.9.Q ..| N c , 1 2 @ + 6 Z 4 $ $ ; + + y i Z : O 1 2 - h M ! #._ n 9.9.9.",
"9.9.c ^ @.^ M d - 2 @ ; i Y D # O + + o # . 5 U H 4 + 1 1 > x V  .+.~ 9.9.9.",
"9.9.x E @.R z + 1 - ; D T J # # # # ; + = # X t Y I e O 1 $ d N ^ $.E c 9.9.",
"9. .V N O.V z = 1 - e H J > + = ; # = + = # + % t L a $ - - d M ) @.V [ O.9.",
"9.~ o.M O.W z : 2 - e < + > + $ ; ; = = = & + - + ; r < - 2 d N [ | W } N 9.",
"9.N N c W c k > : < < # : I < = ; # ; # @ - @ D D X 8 y ; 1 q b N N N N c 9.",
"9.c Q ^ ^ ^ c = 2 3 8 + C L < + # & ; # - . 1 s P $ $ s - 2 d m R ~ / / 9.9.",
"9.x c c c x j % - 6 p O > w Y A X   X . . - ,.a 7 O $ s - $ q b b v b b 9.9.",
"9.9.z N N c l % = 4 e 4 t : Y 4.<.J U e Y 2.1.F # a # s - - q b M N N 9.9.9.",
"9.9.x ! E m l = - : 3 t ,.4 L 3.6.8.5.O.7.5.Y 7 T Y # S = - d c V ^ ! 9.9.9.",
"9.9.c ^ { V x : 2 5 u # J <.<.<.4.8.5.,.6.<.,.1.1.< # s - 7 d M E )  .9.9.9.",
"9.9.c _ | W x & 2 5 p # = T ,.<.<.3.3.U <.<.<.<.C o ; e : : d n ~ _  .9.9.9.",
"9.9.c ) o.V z = 2 6 U 4 X i 1.2.<.<.1.P <.1.2.T + O L e 2 2 d c / ` ~ 9.9.9.",
"9.9.x / ) N l % - 5 K A o J ,.3.5.5.2.I 5.6.3.I w 4 L w = - d b ^ ) Q 9.9.9.",
"9.9.x ) ) N z = 2 5 p t = P G C C 1.1.Y T A A J A > i e - 1 d c ^ _ Q 9.9.9.",
"9.9.x / ..M c % - 5 y 3 C ,.J o . w Y C o   w <.P < = p = - d M Q ` Q 9.9.9.",
"9.9.x ) #.M c > 2 3 3 # C T 1.L G I ,.J J G 3.3.P ; + S : 2 d N Q ' ~ 9.9.9.",
"9.9.x / @.M x = 2 4 8 = : P Y T T 1.<.Y T T ,.Y Z ; # S - 2 d N ~ ` Q 9.9.9.",
"9.9.x ) ! b l > 2 6 y ; # w G J I ,.A C <.L L i # = # i : 1 d b V / Q 9.9.9.",
"9.9.x ^ V b z > 6 3 5 = = & = w Y Y C t ,.H < # = ; + e : 1 d b N Q E 9.9.9.",
"9.9.z N M x z = : ; ; ; ; 3 o t I Y I G Y K o # 3 3 + r - 1 d b c M N z 9.9.",
"9.9.! / / ! ~ > - - < # 3 3 # D I P Y G Y Z ; 3 3 3 # p - - v { / ( ( ! 9.9.",
"9.9.[ @.#.X.{ > - < y # = ; =   C I Y G I X # = = & # p - @ v  .O.O.O.] 9.9.",
"9.@.N N M V m & = ; ; # # 3 3 & I I Y H ,.# < < ; # X e = - f V N N N N 9.9.",
"| #.%.%.*.*.O.< 2 6 e # # # # # K + S # C & # # # # o y 1 2 B %.*.*.&.&...' ",
"@.N ~ _ _ / E > 2 5 y # 5 3 ; $ # # p 3 o ; = 4 4 # + S < 2 j ^ _ / ^ Q ^ $.",
"$.M ~ ~ ~ R b & 1 3 5 5 u # # # # # S 3 # # # ; u y # S : : f V E ~ ~ R / -.",
"*.N M M M M x % - > p p 3 # $ 3 5 4 s 3 # y # # ; y y e $ $ f m N N M M } -.",
"=.*.*.$.*.$..., $ = 5 5 o o # # 5 p S 5 p o o # # 4 5 5 $ $ B %.%.%.*.$.=.=.",
"M ` ` ' _ / R & @ $ 3 e y p p p 5 3 j $ 4 s p y p e 4 < + @ k ^ ) ' _ / ~ z ",
"M ^ ) ) ^ E N * 9 9 * * 0 9 9 0 q * e 9 9 9 q q 9 9 9 9 9 , j V ~ / / / E z ",
"c E N V N M m z N R N N x M M V M M M M B M M M c c N M M b x M N N N V R z ",
"x n V V V N V V ) ` ) ) V V ) ` _ ) ) ) ) ) ) ^ V E / ) ~ R N M V V V V V z ",
"n ^ @.#.#.o.+.$.#.$.$...~ _ @.-.-.-.$.=.-.-.=.#.~ ~ +.$.$.@.O.) / / ) / E x ",
"N ` -.-.-.:.-.;.-.-.-.$.^ ' $.*.=.-.-.-.-.>.>.;.O.| *.*.;.;.;.:.-.=.*.+.} x ",
"E ) ..X...O.X...o...o.| ^ ) ) ) ) X...X.o...o.X.} ^ / /  .O.O.X.X.......| V ",
"9.9.9.9.9.9.9.9.9.9.9.9.9.9.9.9.9.9.9.9.9.9.9.9.9.9.9.9.9.9.9.9.9.9.9.9.9.9."
};
