/* XPM */
static char *result[] = {
/* columns rows colors chars-per-pixel */
"38 48 115 2 ",
"   c #14110F",
".  c #151210",
"X  c #191714",
"o  c #161915",
"O  c #1A1A17",
"+  c #1B1D19",
"@  c #211E1C",
"#  c #1E221D",
"$  c #22231F",
"%  c #1E2226",
"&  c #1F252A",
"*  c #222521",
"=  c #2A2522",
"-  c #262A25",
";  c #2C2A26",
":  c #23262B",
">  c #24292D",
",  c #2A2D29",
"<  c #312A27",
"1  c #342D2A",
"2  c #2D322C",
"3  c #30362E",
"4  c #39312D",
"5  c #232C33",
"6  c #232F39",
"7  c #27333C",
"8  c #29323B",
"9  c #333432",
"0  c #3C3431",
"q  c #343C32",
"w  c #3B3C3A",
"e  c #403F3F",
"r  c #364135",
"t  c #394337",
"y  c #3C413B",
"u  c #3F4B3C",
"i  c #414C3F",
"p  c #253543",
"a  c #273B4E",
"s  c #273D51",
"d  c #293F52",
"f  c #2A4257",
"g  c #2C455D",
"h  c #2C4761",
"j  c #2D4A63",
"k  c #2F4E69",
"l  c #304D67",
"z  c #304E6A",
"x  c #2F516D",
"c  c #31516D",
"v  c #325573",
"b  c #335877",
"n  c #345B7B",
"m  c #444443",
"M  c #454B44",
"N  c #484847",
"B  c #4C4C4B",
"V  c #445342",
"C  c #485746",
"Z  c #4A5947",
"A  c #4E504E",
"S  c #4A5A48",
"D  c #50514F",
"F  c #535352",
"G  c #585757",
"H  c #585B57",
"J  c #5C5C5C",
"K  c #5F605F",
"L  c #636363",
"P  c #666965",
"I  c #6B6B6B",
"U  c #6E726E",
"Y  c #737373",
"T  c #7B7B7B",
"R  c #355E80",
"E  c #376184",
"W  c #396385",
"Q  c #376589",
"!  c #38668A",
"~  c #3A688D",
"^  c #3B6C93",
"/  c #3B6F99",
"(  c #3F7096",
")  c #3C719B",
"_  c #3D76A2",
"`  c #3E79A6",
"'  c #3E7BA9",
"]  c #416F92",
"[  c #427296",
"{  c #42759C",
"}  c #44789F",
"|  c #4177A0",
" . c #437AA4",
".. c #437DA9",
"X. c #4681AD",
"o. c #4982AD",
"O. c #4684B1",
"+. c #4A86B2",
"@. c #4C89B5",
"#. c #4D8CB9",
"$. c #518CB7",
"%. c #528FBB",
"&. c #5492BD",
"*. c #5995BF",
"=. c #5697C4",
"-. c #5698C6",
";. c #599AC7",
":. c #599CCA",
">. c #60A2CE",
",. c #858585",
"<. c #8B8B8B",
"1. c #939393",
"2. c #9D9D9D",
"3. c gray66",
"4. c None",
/* pixels */
"4.4.4.4.4.4.4.4.4.4.4.4.4.4.4.4.4.n x R b 4.4.4.4.4.4.4.4.4.4.4.4.4.4.4.4.4.",
"4.4.4.4.4.4.4.4.4.4.4.4.4.4.v x ^ _ E ` ) E v b 4.4.4.4.4.4.4.4.4.4.4.4.4.4.",
"4.4.4.4.4.4.4.4.4.4.4.4.v ^ ....O.@.^ @.+.O... .! j 4.4.4.4.4.4.4.4.4.4.4.4.",
"4.4.4.4.4.4.4.4.4.4.j c Q O.+.+...} W ^ ) +.+.+.X.b v 4.4.4.4.4.4.4.4.4.4.4.",
"4.4.4.4.4.4.4.4.4.n /  .] { ! ] n n b v n E ! ^ | [ ..^ v 4.4.4.4.4.4.4.4.4.",
"4.4.4.4.4.4.4.h ~ ......] b n n b b c k v b n R n [ o.X.' b h 4.4.4.4.4.4.4.",
"4.4.4.4.4.4.z E ....| ! n z c z l f p p g k k z c R ! ..O._ E 4.4.4.4.4.4.4.",
"4.4.4.4.4.4.E ` +.] R b j f d 5 > : @ @ : & a f g c n E { O._ b 4.4.4.4.4.4.",
"4.4.4.4.4.b ..o.^ n c g * = $ $ < < 1 < < < $ @ $ 5 g v R { O.) c 4.4.4.4.4.",
"4.4.4.4.h } ..^ n z 5 $ < 1 e @ 4 1 4 4 4 < < e 4 = @ 7 v R ^ ..W h 4.4.4.4.",
"4.4.4.v / R E R l 5 1 < 1 1 @ O .         @ + $ 1 < < < p b ! n ! ~ 4.4.4.4.",
"4.4.4.R +.{ n b 5 = 4 $       .                 X @ = 4 $ d b R O...n 4.4.4.",
"4.4.b ) @.~ v a = 4 ; q I 2 o . .       . o o # J B - ; 4 @ d n { O.) 4.4.4.",
"4.4.c ! o.W h % 1 = q P J O # # @   . .   O # # - Y L # < @ : b W @.) z 4.4.",
"#. .b b o.n g * < = y F , # * # @     .   O $ # O F J 2 @ = : c W #.~ W ..4.",
"l ~ } c o.W g , 1 , 9 # * # - - X . . .   + * % + * 1 4 @ e > v W o.W  .! 4.",
"h R R k ] v f : ; - # - J O * % O . . . . o % # , , + 3 - 4 > c b ! b W n 4.",
"4.k Q ! ! ! j - 1 2 - m I # O @ O . . . . + # # 9 B - i - 4 : c b E ~ ~ E 4.",
"4.k b b b v f : ; r , 9 y I + o . . . . . . . m H - $ i - < : j c c b n c 4.",
"4.4.l v v j f % = q * o 3 2.I 9 @ . .   . O 9 Y I % , i - = & k l v v h 4.4.",
"4.4.c E n l g : * - > D 2 1.<.J D . . . . ; L <.J T L V - < : z x E ! 4.4.4.",
"4.4.b ) } v g > < q 2 L ,.<.<.I N . . . . 9 Y ,.<.Y 9 V - 4 : v b / ..4.4.4.",
"4.4.b ` o.b g : 4 t - 9 ,.<.I K e . . . . 9 K ,.<.N # q - 4 : v b ) ..4.4.4.",
"4.4.v ` +.v g : 1 M M o F 1.I J m . . . . 0 K ,.,.w $ 3 - 0 : z R  .) 4.4.4.",
"4.4.c ) _ c f : , M H , J 2.1.P J . . .   D ,.2.1., 2 w % < : c R _ ) 4.4.4.",
"4.4.c ) ) c f : < y M 9 J L P ,.J . . .   L T U J * , y $ 4 : k R ) / 4.4.4.",
"4.4.c / | z g : < r q F T $ + w J . . . . m * + G F 2 u - 4 : c b _ ) 4.4.4.",
"4.4.c ) +.z l > < 2 , A ,.J - 9 J . .     N w D 3.K , S - 4 > b b ` ) 4.4.4.",
"4.4.z / +.c l : 4 2 - y Y ,.L F B X     . e I <.2.M - S - 0 : b b ` ) 4.4.4.",
"4.4.v / ^ z f : < r - # m P K m 0   . .   , G L L * , V - 4 > z v ) / 4.4.4.",
"4.4.v _ R z g : 4 q - * % m J 9 B .   . . e L K 3 + - q - 0 > c c ! ^ 4.4.4.",
"4.4.z R v j g ; < - * : ; + J G J X . .   F I B + - - q - 4 : z z n n l 4.4.",
"4.4.v b b c c , - - $ - - q J J J . . .   G U y $ , 2 t - 1 5 n b b n c l 4.",
"4.4.} #.$.o.{ 5 = q $ - * # 3 J J . . .   N J # * - , i - < 8 o.@.@.@...v 4.",
"4.] b n n n c : * 3 $ * 2 * w U N . . . . - N % 2 - - q - = > c n b n v c 4.",
") @... ...X.~ 5 1 2 # # # * # m 9 .   . . o B , # # # q - 4 8 ........o.+.4.",
"..(  .X.+.O.{ 8 3 r # # # # # # * . . . . . , - # # # u - q 8 X.+.+.+. .) ..",
"@.n ^ ) ^ ! c > 3 r - r , * # # + .   . . . O * $ r - V - 0 5 W ^ ~ ~ W R #.",
"@.b R R b v h & $ , t r # # # # o . . . . o O $ # r Z Z - < : c c n W n n #.",
"-... .|  .| ! 5 $ , r # # # 2 - + . . . . . + + $ 2 r 3 $ $ 6 } | | | | X.;.",
") O.O.O.O.X.! 5 $ $ 3 q C r 2 # + . . . . o + # 2 V t 3 $ $ 6 | O.O...|  .} ",
"n ) ' ' ) ! b & @ $ $ * * # o   . . . . . . . . O $ $ * O + 5 ! ! _ ` | ^ b ",
"n ~ ~ ! Q n x a g h g g g h g j g g g h g g h g g g g h g g a b R ! ! ! ! b ",
"z v c c v c c c W ) ~ ! v b E ( ! Q Q Q Q Q Q Q b v E ! E n c z v v z v n l ",
"c n ^ ) ) / ) ) _ ' ` ' E ~ ..#.#.#...O.#.#.@. .! E ) ` _ ) ! W Q ! ! ! ! v ",
"b { -.-.;.#.&.-.-.-.=.@.~ ' #.:.:.:.:.:.:.>.>.:.X.^ +.-.-.;.=.$.+.O.O...^ n ",
"E ..&.#.&.&.&.&.%.%.&.@.^ _ ' ....%.%.%.%.&.&.&.@.) ....@.*.&.&.=.%.%.+.@.~ ",
"4.4.4.4.4.4.4.4.4.4.4.4.4.4.4.4.4.4.4.4.4.4.4.4.4.4.4.4.4.4.4.4.4.4.4.4.4.4."
};
