/* XPM */
static char *result[] = {
/* columns rows colors chars-per-pixel */
"38 48 129 2 ",
"   c #0B0E09",
".  c #0F130D",
"X  c #10140F",
"o  c #151311",
"O  c #191613",
"+  c #161915",
"@  c #1A1B17",
"#  c #1B1D1A",
"$  c #221E1C",
"%  c #1E221D",
"&  c #23221F",
"*  c #1D2023",
"=  c #1F2B37",
"-  c #232521",
";  c #2A2522",
":  c #252A24",
">  c #2A2B26",
",  c #23262A",
"<  c #2A2D29",
"1  c #302A27",
"2  c #332D2A",
"3  c #2D332B",
"4  c #2F382E",
"5  c #31352E",
"6  c #39322E",
"7  c #30392F",
"8  c #212A32",
"9  c #242F39",
"0  c #24313D",
"q  c #333432",
"w  c #3B3330",
"e  c #343B32",
"r  c #383A37",
"t  c #3B3D3A",
"y  c #403835",
"u  c #374235",
"i  c #394236",
"p  c #3D433C",
"a  c #3E493C",
"s  c #40413F",
"d  c #404C3D",
"f  c #253646",
"g  c #253847",
"h  c #253748",
"j  c #263849",
"k  c #2A3C4A",
"l  c #293F51",
"z  c #2D404F",
"x  c #2A4156",
"c  c #2B445A",
"v  c #2B485F",
"b  c #2E4B64",
"n  c #2F4E69",
"m  c #304E6A",
"M  c #31516D",
"N  c #325573",
"B  c #335877",
"V  c #345B7B",
"C  c #385D7B",
"Z  c #434543",
"A  c #464945",
"S  c #4C4D4C",
"D  c #445342",
"F  c #495846",
"G  c #4E534D",
"H  c #4D5E4A",
"J  c #50504F",
"K  c #555554",
"L  c #565855",
"P  c #595A57",
"I  c #5D5D5C",
"U  c #605F5E",
"Y  c #4F604C",
"T  c #51624E",
"R  c #60605F",
"E  c #646463",
"W  c #676867",
"Q  c #6C6C6C",
"!  c #6F716F",
"~  c #747474",
"^  c #7B7C7B",
"/  c #365F81",
"(  c #376285",
")  c #3A6385",
"_  c #376489",
"`  c #39668A",
"'  c #3A698E",
"]  c #3B6C93",
"[  c #3B6F98",
"{  c #3C719A",
"}  c #3D76A1",
"|  c #3E79A5",
" . c #3E7AA8",
".. c #406D8F",
"X. c #406E91",
"o. c #417195",
"O. c #41749C",
"+. c #43789F",
"@. c #4177A1",
"#. c #437AA3",
"$. c #497CA1",
"%. c #427EAA",
"&. c #4681AD",
"*. c #4981AB",
"=. c #4684B1",
"-. c #4986B3",
";. c #4C89B5",
":. c #4E8DBB",
">. c #5089B3",
",. c #518EBA",
"<. c #4F90BE",
"1. c #5392BE",
"2. c #5495C2",
"3. c #5799C7",
"4. c #599BC7",
"5. c #599CCA",
"6. c #5EA0CD",
"7. c #60A2CD",
"8. c #65A7D1",
"9. c #858585",
"0. c #8C8C8C",
"q. c #929292",
"w. c #9C9C9C",
"e. c #A2A2A2",
"r. c #AEAEAE",
"t. c #B2B2B2",
"y. c #BCBCBC",
"u. c #C3C3C3",
"i. c None",
/* pixels */
"i.i.i.i.i.i.i.i.i.i.i.i.i.i.i.i.i.V N N V i.i.i.i.i.i.i.i.i.i.i.i.i.i.i.i.i.",
"i.i.i.i.i.i.i.i.i.i.i.i.i.i.N n _ { _ ] } ' N N i.i.i.i.i.i.i.i.i.i.i.i.i.i.",
"i.i.i.i.i.i.i.i.i.i.i.i.b _  .%.&.-.{ $.;.=.%.#.{ N i.i.i.i.i.i.i.i.i.i.i.i.",
"i.i.i.i.i.i.i.i.i.i.i.M V %.-.;.&.#.X.( { #.;.;.=.] V v i.i.i.i.i.i.i.i.i.i.",
"i.i.i.i.i.i.i.i.i.N ' #...#.] ` ( C C M C / _ ' O.O.,.[ N i.i.i.i.i.i.i.i.i.",
"i.i.i.i.i.i.i.i./ {  .=.] C / / V N N b N V V ( C ) *.&.| _ b i.i.i.i.i.i.i.",
"i.i.i.i.i.i.b V | &.*.' C N m N b c h f l b b M M V ( +.&.%.] n i.i.i.i.i.i.",
"i.i.i.i.i.i.N } -.+._ V b c l k 8 , $ $ * = 9 x c v N ( ] %.%._ i.i.i.i.i.i.",
"i.i.i.i.i.M } -.] ( N b - & ; & 1 1 2 2 1 1 ; ; $ - l N V ] &.%.C i.i.i.i.i.",
"i.i.i.i.b C &.O.( N x , ; 2 w 1 2 2 2 1 2 2 ; 6 2 1 ; 9 m C ] %.] n i.i.i.i.",
"i.i.i.i.] / V ` B k > 2 6 y > @ $ o o o X O @ & y y ; 2 8 M / ( M ' V i.i.i.",
"i.i.i.V %.%./ V k - 2 1 # - r e & $ O o o O 4 p - @ $ 6 & 9 B V +.&.[ i.i.i.",
"i.i.M ] &.+.V c $ 2 2 @ s ~ A @ @ @ @ o + + X Z ^ r - $ 6 ; 9 N ` *.&.V i.i.",
"i.i.M _ &.] N 9 ; 2 # 3 ~ U % % $ % @ o X % % , Q ! s - ; 2 * b ( #.=.V i.i.",
"i.*.C B *.` M 8 ; ; < Z P 3 % : : % @ o @ % - @ 5 E P 5 $ ; @ c V #.%.N O.>.",
"i.` #.B *.' N 3 w ; e t < # # * : - # o % - % @ * - Z e # 2 ; c ( $.o.o.#.N ",
"i.V / B ..V m 8 2 - e # Z K % - - % % X # * : : E : % e 4 1 - l N ` C ( C n ",
"i.m C / ( _ B 8 w < i % Z E : @ - - % o * - % & ~ p # u 7 < - c M V ( ( _ i.",
"i.n B V N N M 8 1 < H % t t ~ : . + + X @ X X r q t @ e q ; $ l M M N C N i.",
"i.i.b M N b b 8 ; > F @ < q 0.^ Z 6 & X @ q P ~ % % # u e ; $ c m M N b i.i.",
"i.i.n / C M M 8 ; - r + E r ~ t.y.t.I o S w.y.^ 2 *.q u e ; $ c n C _ N i.i.",
"i.i.M ` ] ( N 8 1 < A @ E E 9.q.u.u.U o K w.w.0.W 0.* u e ; $ b N _ @.) i.i.",
"i.i.N [ #.o.V 8 6 < Y % A q.0.9.e.e.P o K 0.9.0.q.y # 3 5 2 - b N ' %.` i.i.",
"i.i.N { %.X.m 8 6 3 T i - E q.q.9.9.P o K 9.0.0.W O # G < 6 $ l N { #./ i.i.",
"i.i.n ' } ( M = 2 > T U - E w.e.r.w.P o L w.y.e.P @ d U & 1 & x N [ | B i.i.",
"i.i.n ' [ ( m 8 2 < T P q I ~ 9.w.r.U o P r.w.~ P & L d ; 1 & c M [ } V i.i.",
"i.i.m ' } / m 8 6 < Y r t ~ q + # P U o S r X 5 9.s d & 5 2 & c n [ } V i.i.",
"i.i.m ' -.( V 8 1 < d % t q.~ o $ K U X J r   ! q.d 1 y e 1 & v N [ | V i.i.",
"i.i.n ' -.( V 8 6 < p % t ^ q.0.^ 9.E o J ^ q.r.~ z : u e 2 ; b B ]  .V i.i.",
"i.i.n ' #.C N 8 2 < H & t P ! Q ^ w.U o G ^ Q ! G - < 4 7 1 - c M ] | V i.i.",
"i.i.N ] ( N m 8 6 < Y % - # S J ^ U t O & ^ R 7 O & 3 : q 2 - c M C [ V i.i.",
"i.i.n _ C M N 8 6 : u % < - O q ^ ! Z o s ^ R . > : : - q 1 $ c m B _ N i.i.",
"i.i.n N N M N 9 2 - q % 3 3 + P ! ~ R X A ! W t 3 3 < , 5 ; & b N M N M b i.",
"i.i.] %.&.$.%.k 1 - d @ : : @ 3 Q ! U O A Q q r : : - 4 e ; $ X.%.*.%.*.` i.",
"i.i.C ` ] ` ) 0 & & D @ : < < + U ^ U o Z Q # - < : : : 7 & $ m ( ` ` ) M i.",
"i.*.O.X.] { o.f 2 > i @ % : - % Q R P O y E 3 < - % % : 7 ; $ ( o.[ o.o.#.i.",
"%.#.-.-.,.:.:.z 6 < Y @ % % % % r < u X % 4 < % % % % 3 4 3 ; o.:.:.:.-.%.#.",
":./ ` [ { ] ' 0 6 : Y + u : : % @ 3 u X & % * : u 3 % 4 e 1 & N ] ] ] ] V +.",
"2._ _ _ ( V N 9 > : u 4 4 % % % % 3 i X : % & % : a F u 7 ; & b B / _ _ V @.",
"2.{ _ / _ _ ( 0 ; & u a 3 % : 3 u a i X < u 4 * % 4 u u < & # N ( _ _ _ _ -.",
",.2.2.2.2.2.1.z & & 3 7 & : & : q u u o : e : % - : 4 e < $ # $.2.2.2.2.,.,.",
"N {  . .} ] ` 0 $ & : : e 7 u 4 : 3 4 X % < 7 5 e 4 < : - $ @ V ] [ | } [ ` ",
"N ` ] [ ] _ V j h h f h g g g g h h h h h h h j j j h h h h 8 M V ` ] ] ] _ ",
"n V N M M M M b V ' ( V M M B _ / / V V V C C V V n V V / N m m m N N m B V ",
"n N / _ _ _ _ _ { | | | ' V { %.%.%.#.| %.%.%.#.' C ' | } ] ( B / _ _ / ( / ",
"n ] -.,.,.;.-.,.<.:.<.-.' ]  .3.3.5.2.2.5.4.5.2.=._ } :.:.,.:.&.#.#.#.@.{ ` ",
"N #.5.5.6.7.4.7.5.5.5.5.] { -.2.2.4.5.5.5.7.8.8.3.+.-.2.2.8.7.8.7.6.2.2.&.#.",
"/ @.$.%.*.%.*.&.&.&.&.&.] [ { { { $.*.%.*.*.*.%.&.] { { #.$.-.%.$.%.*.%.*.i."
};
