/* XPM */
static char *result[] = {
/* columns rows colors chars-per-pixel */
"38 48 86 1 ",
"  c #0F110C",
". c #151210",
"X c #191715",
"o c #171914",
"O c #1B1916",
"+ c #1C1D1A",
"@ c #211E1C",
"# c #1E211D",
"$ c #24211F",
"% c #1F1F20",
"& c #242422",
"* c #2A2522",
"= c #262A24",
"- c #2C2926",
"; c #232528",
": c #22292E",
"> c #2C2D2A",
", c #302A27",
"< c #332D29",
"1 c #2D312B",
"2 c #32342D",
"3 c #38312E",
"4 c #232C34",
"5 c #232F38",
"6 c #25323D",
"7 c #343533",
"8 c #353A31",
"9 c #393A37",
"0 c #3C3D3B",
"q c #364134",
"w c #3D403B",
"e c #40403F",
"r c #253442",
"t c #263847",
"y c #273A4C",
"u c #2B3E4E",
"i c #293F53",
"p c #2A4055",
"a c #2B445B",
"s c #2E4B64",
"d c #2F4E69",
"f c #304E67",
"g c #304E6A",
"h c #2F516C",
"j c #31516D",
"k c #325573",
"l c #335877",
"z c #345B7B",
"x c #395E7B",
"c c #434342",
"v c #4B4B4A",
"b c #565656",
"n c #365F81",
"m c #376184",
"M c #396385",
"N c #37658A",
"B c #39658A",
"V c #3A698E",
"C c #3A6C94",
"Z c #3B6F98",
"A c #3F7097",
"S c #3C729B",
"D c #3D76A2",
"F c #3E79A5",
"G c #3E7BA9",
"H c #406D91",
"J c #407093",
"K c #41749B",
"L c #44789F",
"P c #4277A0",
"I c #447AA4",
"U c #497FA7",
"Y c #437DA9",
"T c #487FA8",
"R c #4682AE",
"E c #4982AC",
"W c #4683B1",
"Q c #4986B2",
"! c #4C89B5",
"~ c #4D8BB9",
"^ c #5291BE",
"/ c #5595C3",
"( c #5B9AC5",
") c #5A9DCB",
"_ c #5DA0CD",
"` c None",
/* pixels */
"`````````````````zjnk`````````````````",
"``````````````jkCDnGZBkk``````````````",
"````````````kSYYW!C!WYGIms````````````",
"``````````fjCWQ!IIxKKQ!!Ykj```````````",
"`````````lSSKKVBnzkkzBBZLLYBk`````````",
"```````sVIRYmxnzkkjjkznnxPEYSk````````",
"``````hNYWKBzjjfsirrssgfknVYRDz```````",
"``````NYEVnksap44;@+::yaajzNPWSk``````",
"`````zYQVzji$$$*,,<,,,*@&5fknPWCf`````",
"````sKYCxd6;,<3,<<<<<<,3<*:ikBKPl`````",
"```lZxnnf:<,<<@XX....O+*<,<-ykBzVN````",
"```NWPzn:*3$.............+,,&fzB!Gl```",
"``zSQBkr*3@...............X,<&anPWZ```",
"``kCEmi+3@..................<@4lm~Z```",
"!KzxEzi%*$O................X-*4kB~mVE`",
"kKHkTxi-,-+X...............&<35kBQxEm`",
"gnnkCki*=+#+..............&92<4hzMkmz`",
"`jnVBBa&-.++.............X$e234hkmCVm`",
"`glkkki%$$&o..............-e2-4fjkzld`",
"``fkgsi@&=7X.............@ec1&4sskj```",
"``kNzfi%@ce-X............&cc--4fjNB```",
"``lCKfi**ve*X............&701-4jlCU```",
"``nDEfa@,vu*X............&7c2<4lnST```",
"``nGQfi@,v9*X...........X&wc><4jNDP```",
"``kDDsi%*c<*X...........X-0b0-4fNDZ```",
"``kSSsi**c7*X............%>00-5gNSC```",
"``kDPsi&,c$@..............X70<4kxFZ```",
"``kDTga&$e@ .............+#>2,5kzGZ```",
"``kDTga&,>*@.............=c9834lzGZ```",
"``kDZsi&*vu@ ............&cc8<4jlFZ```",
"``lSnsi*,99X.............+>=834jkVC```",
"``kBkfi;,-9@.............+#=2<4fhxma``",
"``kzldd&$--#.............O722<6xklljs`",
"``Y~!EA&$$#+.............O=&2$p!!~!Ef`",
"`BnBVBk&$$##.............+&=2$6xMNMxj`",
"`!YPIIm&-$##..............##2<pIIIIE!`",
"IKYRQQC&-##+..............##22pYQQRIAG",
"YzCSCBh&,###..............#q226NAVVmm/",
"Ylmnxka+$2##..............+88*6klmzlm/",
"^KSSZSz%$1#+.............Xo&1*tAZSSSY)",
"E~~~~!V%$$o ...............X=$u!~~~WQE",
"nDGGSVk+O...................X@rBCFDDVs",
"nCCCBzhrypyyyyyuyyyyyyyyyyiyyyiznVVVVf",
"ggfffdssBAmmdlmCmnmmmnmmkknnxkssfgffks",
"kzBCCCCCFGFFnVYWQQYRQQRDmBSFSCmnBBBnBd",
"zI///R~///^RNF~)))/))_)/SCQ///^EYYYDCf",
"BW//((/(///~CGW!!//(/(((QPW!/((((//!Qk",
"``````````````````````````````````````"
};
