/* XPM */
static char *result[] = {
/* columns rows colors chars-per-pixel */
"29 11 5 1 ",
"  c black",
". c #3A0911",
"X c #811426",
"o c #A11B31",
"O c None",
/* pixels */
"OOOOOOOOOOOOOOOOOO........OOO",
"OOOOOOOOOOOOOOOO..oooooooo.OO",
"OOOOOOOOOOOOOOO.ooooooooooo.O",
"OOOOOOOOOOOOOO.oooooooooooo.O",
"OOOOOOOOO......oooo.Xooooooo.",
"OOOOOO...oooooX.oo.XoooooooX.",
"OOOOO.oooooooooo..Xooooooooo.",
"OOOO.XooooooooooXXoooooooooX.",
"OOO.XoooooooooooooooooooooXX.",
"OO.XXXXXXXXXXXXXXXXXXXXXXXXX.",
"   .........................O"
};
