/* XPM */
static char *result[] = {
/* columns rows colors chars-per-pixel */
"29 12 5 1 ",
"  c black",
". c #3A0911",
"X c #811426",
"o c #A11B31",
"O c None",
/* pixels */
"OOOOOOOOOOOOOOOOOO........OOO",
"OOOOOOOOOOOOOOO...oooooooo.OO",
"OOOOOOOOOOOOOO.oooooooooooo.O",
"OOOOOOOOOOOOOO.oooooooooooo.O",
"OOOOOOOOO......ooooooooooooo.",
"OOOOOO...oooooX...XooooooooX.",
"OOOOO.ooooooooooXXoooooooooo.",
"OOOO.XoooooooooooooooooooooX.",
"OOO.XoooooooooooooooooooooXX.",
"OO.XXXooXXXXXXXXooXXXXoooXXX.",
"OO.XXXXXXXXXXXXXXXXXXXXXXXX.O",
"   ........................OO"
};
