/* XPM */
static char *result[] = {
/* columns rows colors chars-per-pixel */
"17 27 6 1 ",
"  c black",
". c #3A0911",
"X c #811426",
"o c #A11B31",
"O c white",
"+ c None",
/* pixels */
"+++++.......+++++",
"++++.ooooooX.++++",
"+++.o....oooX.+++",
"++.o.    .oooX.++",
"+.o.      .ooX..+",
"+.o.      .ooXXX.",
"+.o.O   O .oXXXX.",
"+.o.O   O .oX...+",
"+.X.      .oX.+++",
"+.X.     .oXX.+++",
"++.X.   .XXX.++++",
"+++.X...XX..+++++",
"++.XoooooXXX.++++",
"+.XoooooooooX.+++",
"+.XoooooooooX.+++",
".XoooooooooooX.++",
".XoooooooooooX.++",
".XooooXooooooX.++",
".XooooXooooooXX.+",
".XXooX.XoooooXX.+",
".XXXX. .XXoXXXX.+",
".X.XX.  .XXXX.X.+",
"+....   .....+.++",
"++++  +++  ++++++",
"++++ ++++  ++++++",
"++++ ++++ +++++++",
"++++ ++++ +++++++"
};
