/* XPM */
static char *result[] = {
/* columns rows colors chars-per-pixel */
"19 27 6 1 ",
"  c black",
". c #3A0911",
"X c #811426",
"o c #A11B31",
"O c white",
"+ c None",
/* pixels */
"+++++++.......+++++",
"++++++.ooooooX.++++",
"+++++.o....oooX...+",
"++++.o.    .oooXXX.",
"+++.o.      .ooXXX.",
"+++.o.      .ooXX.+",
"+++.o.      .oXX.++",
"+++.o.O   O .oX.+++",
"+++.X.O   O .oX.+++",
"+++.X.     .oXX.+++",
"++++.X.   .XXX.++++",
"+++++.X...XX..+++++",
"++++.XoooooXXX.++++",
"++..XoooooooooX.+++",
"+.XXXoooooooooX..++",
"+.XXoooooooooooXX.+",
".XXoooooooooooXXXX.",
".XXoooooXooooooXXX.",
".X.oooooXooooooXXX.",
"+.XXoooX.XoXo.XXX.+",
"++..XoXX.XXX.XX..++",
"++++.... ......++++",
"++++++       ++++++",
"++++++  +++  ++++++",
"++++++ ++++ +++++++",
"++++++ ++++ +++++++",
"+++++++ ++++ ++++++"
};
