/* XPM */
static char *result[] = {
/* columns rows colors chars-per-pixel */
"16 28 6 1 ",
"  c black",
". c #3A0911",
"X c #811426",
"o c #A11B31",
"O c white",
"+ c None",
/* pixels */
"+++++.......++++",
"++++.ooooooX.+++",
"+++.o....oooX.++",
"++.o.    .oooX.+",
"+.o.      .ooX.+",
"+.o.O   O .ooXX.",
"+.o.O   O .oXXX.",
"+.o.      .oX.X.",
"+.X.      .oX.X.",
"+.X.     .oXX..+",
"++.X.   .XXX.+++",
"+++.X...XX..++++",
"++.XoooooXXX.+++",
"+.XoooooooooX.++",
"+.XoooooooooX.++",
"+.ooooooooooo.++",
"+.ooooooooooo.++",
"+.ooooXoooooo.++",
"+.ooooXoooooo.++",
"+.XooX.Xooooo.++",
"+.XoXX.XXoXoXX.+",
".XXXX. .XXoXXX.+",
".X.XX.  .XXXXX.+",
"+.XX.   .XX.XX.+",
"++... ++...+..++",
"++++ ++++  +++++",
"++++ ++++ ++++++",
"++++ ++++ ++++++"
};
