/* XPM */
static char *result[] = {
/* columns rows colors chars-per-pixel */
"17 26 6 1 ",
"  c black",
". c #3A0911",
"X c #811426",
"o c #A11B31",
"O c white",
"+ c None",
/* pixels */
"+++++.......+++++",
"++++.ooooooX.++++",
"+++.o....oooX.+++",
"++.o.    .oooX..+",
"+.o.      .ooXXX.",
"+.o.      .ooXXX.",
"+.o.O   O .oX.X.+",
"+.o.O   O .oX..++",
"+.X.      .oX.+++",
"+.X.     .oXX.+++",
"++.X.   .XXX.++++",
"+++.X...XX..+++++",
"++.XoooooXXX.++++",
"++.oooooooooX.+++",
"+.XoooooooooX.+++",
"+.ooooooooooXX.++",
".XooooXooooooX.++",
".oooooXooooooXX.+",
".XoooX.XoXoXXXX.+",
"..XoXX.XXXXXXX..+",
".XXXX. .XXXX..+++",
"+....   ....+++++",
"++++  +++  ++++++",
"++++ ++++  ++++++",
"++++ ++++ +++++++",
"+++++ ++++ ++++++"
};
